<svg width="24" height="24" viewBox="0 0 24 24" fill="none" xmlns="http://www.w3.org/2000/svg">
<path d="M12 8.75C10.2051 8.75 8.75 10.2051 8.75 12C8.75 13.7949 10.2051 15.25 12 15.25C13.7949 15.25 15.25 13.7949 15.25 12C15.25 10.2051 13.7949 8.75 12 8.75Z" fill="url(#paint0_linear_2487_77528)"/>
<path fill-rule="evenodd" clip-rule="evenodd" d="M6.76924 3.082C10.2174 2.69662 13.7821 2.69662 17.2302 3.082C19.1286 3.29417 20.6598 4.78995 20.8826 6.695C21.2949 10.22 21.2949 13.781 20.8826 17.306C20.6598 19.2111 19.1286 20.7069 17.2302 20.919C13.7821 21.3044 10.2174 21.3044 6.76924 20.919C4.87084 20.7069 3.33965 19.2111 3.11683 17.306C2.70455 13.781 2.70455 10.22 3.11683 6.695C3.33965 4.78995 4.87084 3.29417 6.76924 3.082ZM16.9997 6.00053C16.4474 6.00053 15.9997 6.44825 15.9997 7.00053C15.9997 7.55281 16.4474 8.00053 16.9997 8.00053C17.552 8.00053 17.9997 7.55281 17.9997 7.00053C17.9997 6.44825 17.552 6.00053 16.9997 6.00053ZM7.2497 12.0005C7.2497 9.37718 9.37635 7.25053 11.9997 7.25053C14.6231 7.25053 16.7497 9.37718 16.7497 12.0005C16.7497 14.6239 14.6231 16.7505 11.9997 16.7505C9.37635 16.7505 7.2497 14.6239 7.2497 12.0005Z" fill="url(#paint1_linear_2487_77528)"/>
<defs>
<linearGradient id="paint0_linear_2487_77528" x1="12" y1="8.75" x2="12" y2="15.25" gradientUnits="userSpaceOnUse">
<stop stop-color="#1890FF"/>
<stop offset="1" stop-color="#145AFF"/>
</linearGradient>
<linearGradient id="paint1_linear_2487_77528" x1="11.9997" y1="2.79297" x2="11.9997" y2="21.2081" gradientUnits="userSpaceOnUse">
<stop stop-color="#1890FF"/>
<stop offset="1" stop-color="#145AFF"/>
</linearGradient>
</defs>
</svg>
