<svg width="21" height="20" viewBox="0 0 21 20" fill="none" xmlns="http://www.w3.org/2000/svg">
<path d="M15.5013 5.83366V4.33366C15.5013 3.40024 15.5013 2.93353 15.3196 2.57701C15.1599 2.2634 14.9049 2.00844 14.5913 1.84865C14.2348 1.66699 13.7681 1.66699 12.8346 1.66699H8.16797C7.23455 1.66699 6.76784 1.66699 6.41132 1.84865C6.09771 2.00844 5.84275 2.2634 5.68296 2.57701C5.5013 2.93353 5.5013 3.40024 5.5013 4.33366V5.83366M5.5013 15.0003C4.72633 15.0003 4.33884 15.0003 4.02092 14.9151C3.15819 14.684 2.48432 14.0101 2.25315 13.1474C2.16797 12.8295 2.16797 12.442 2.16797 11.667V9.83366C2.16797 8.43353 2.16797 7.73346 2.44045 7.19868C2.68014 6.72828 3.06259 6.34583 3.53299 6.10614C4.06777 5.83366 4.76784 5.83366 6.16797 5.83366H14.8346C16.2348 5.83366 16.9348 5.83366 17.4696 6.10614C17.94 6.34583 18.3225 6.72828 18.5622 7.19868C18.8346 7.73346 18.8346 8.43353 18.8346 9.83366V11.667C18.8346 12.442 18.8346 12.8295 18.7495 13.1474C18.5183 14.0101 17.8444 14.684 16.9817 14.9151C16.6638 15.0003 16.2763 15.0003 15.5013 15.0003M13.0013 8.75033H15.5013M8.16797 18.3337H12.8346C13.7681 18.3337 14.2348 18.3337 14.5913 18.152C14.9049 17.9922 15.1599 17.7372 15.3196 17.4236C15.5013 17.0671 15.5013 16.6004 15.5013 15.667V14.3337C15.5013 13.4002 15.5013 12.9335 15.3196 12.577C15.1599 12.2634 14.9049 12.0084 14.5913 11.8486C14.2348 11.667 13.7681 11.667 12.8346 11.667H8.16797C7.23455 11.667 6.76784 11.667 6.41132 11.8486C6.09771 12.0084 5.84275 12.2634 5.68296 12.577C5.5013 12.9335 5.5013 13.4002 5.5013 14.3337V15.667C5.5013 16.6004 5.5013 17.0671 5.68296 17.4236C5.84275 17.7372 6.09771 17.9922 6.41132 18.152C6.76784 18.3337 7.23455 18.3337 8.16797 18.3337Z" stroke="#1883FF" stroke-width="1.5" stroke-linecap="round" stroke-linejoin="round"/>
</svg>
