<svg width="24" height="24" viewBox="0 0 24 24" fill="none" xmlns="http://www.w3.org/2000/svg">
<path fill-rule="evenodd" clip-rule="evenodd" d="M18.483 19.7902L18.4837 19.7884L18.5011 19.7449L21.4999 4.62592V4.57681C21.4999 4.20011 21.3607 3.87125 21.0578 3.67399C20.7927 3.50133 20.488 3.48904 20.2743 3.50526C20.0482 3.52241 19.8351 3.57883 19.6876 3.62579C19.6117 3.64995 19.5482 3.67322 19.5027 3.69083C19.4799 3.69967 19.4614 3.70717 19.448 3.71275L19.4348 3.71831L2.71502 10.2772L2.71042 10.2788C2.70139 10.2821 2.68945 10.2866 2.67502 10.2922C2.64627 10.3034 2.60713 10.3194 2.56115 10.3403C2.47087 10.3812 2.34613 10.4443 2.21963 10.5309C2.00478 10.6781 1.59566 11.0264 1.66474 11.5786C1.72196 12.036 2.03727 12.3265 2.24984 12.4769C2.36378 12.5576 2.4728 12.6157 2.55263 12.6537C2.59307 12.673 2.62743 12.6877 2.65302 12.6981C2.66585 12.7033 2.67657 12.7075 2.68487 12.7107L2.6955 12.7146L2.70229 12.7172L5.62753 13.702C5.61766 13.8855 5.63586 14.0726 5.68453 14.2573L7.14982 19.8157C7.32355 20.4747 7.91978 20.9338 8.60135 20.9333C9.21228 20.9329 9.75411 20.5633 9.98429 20.0119L12.2719 17.5658L16.2009 20.578L16.2568 20.6024C16.6137 20.7582 16.9473 20.8075 17.2522 20.7659C17.5567 20.7243 17.7986 20.5966 17.9804 20.4512C18.1593 20.3081 18.2818 20.1466 18.3589 20.025C18.3981 19.9632 18.4273 19.9089 18.4475 19.868C18.4577 19.8475 18.4657 19.8302 18.4717 19.8166L18.4793 19.7992L18.482 19.7928L18.483 19.7902ZM7.13493 13.8749C7.10163 13.7486 7.15391 13.6152 7.2642 13.5452L17.1862 7.24432C17.1862 7.24432 17.7698 6.89002 17.7489 7.24432C17.7489 7.24432 17.8531 7.30688 17.5403 7.59861C17.2437 7.87569 10.4687 14.4167 9.78316 15.0786C9.74359 15.1168 9.71997 15.1606 9.70602 15.2138L8.60022 19.4333L7.13493 13.8749Z" fill="url(#paint0_linear_2487_77531)"/>
<defs>
<linearGradient id="paint0_linear_2487_77531" x1="11.5785" y1="3.5" x2="11.5785" y2="20.9333" gradientUnits="userSpaceOnUse">
<stop stop-color="#1890FF"/>
<stop offset="1" stop-color="#145AFF"/>
</linearGradient>
</defs>
</svg>
