<svg width="180" height="36" viewBox="0 0 180 36" fill="none" xmlns="http://www.w3.org/2000/svg">
<path d="M162.562 29.6016H164.719C166.156 29.6016 166.906 29.1016 167.438 27.7266L167.75 26.8828L161.656 11.1953H164.938L169.594 23.6953L174.125 11.1953H177.469L171.125 28.0391C169.938 31.2266 168.469 32.4453 165.625 32.4453H162.562V29.6016Z" fill="#090909"/>
<path d="M144.844 19.1406C144.844 14.0469 147.813 10.8906 152.469 10.8906C156.969 10.8906 160.188 14.2656 160.188 18.9844V19.9531H148.063C148.281 23.1719 149.875 24.8594 152.688 24.8594C154.969 24.8594 156.375 23.7656 156.719 22.0156H160C159.344 25.5781 156.844 27.4531 152.656 27.4531C147.875 27.4531 144.844 24.2656 144.844 19.1406ZM152.5 13.3281C149.969 13.3281 148.469 14.7656 148.094 17.6719H156.875C156.656 15.0156 154.938 13.3281 152.5 13.3281Z" fill="#090909"/>
<path d="M138.844 17.7305C138.844 14.8867 137.312 13.668 134.938 13.668C132.656 13.668 130.938 15.2617 130.938 17.5117V27.1992H127.844V11.1992H130.938V13.6367C132.125 11.8242 134.125 10.793 136 10.793C139.438 10.793 141.938 13.0117 141.938 17.0742V27.1992H138.844V17.7305Z" fill="#090909"/>
<path d="M89.75 27.2031H86.875L80.7188 10.7344V27.2031H77.625V6.39062H82.125L88.3438 22.8594L94.4062 6.39062H99.0312V27.2031H95.9375V10.7344L89.75 27.2031Z" fill="#090909"/>
<path d="M75 24.4805V27.1992H73.4375C71.0312 27.1992 69.0625 25.8867 69.0625 22.793V13.793H66.2812V11.1992H69.0625V7.04297H72.1562V11.1992H75V13.793H72.1562V22.3867C72.1562 24.043 72.8125 24.4805 73.7812 24.4805H75Z" fill="#090909"/>
<path d="M64.0312 16.6953V27.1953H60.9062V24.5078C59.7812 26.3828 57.8125 27.5391 55.4688 27.5391C52.375 27.5391 50.1562 25.5391 50.1562 22.6953C50.1562 19.9766 51.8438 18.3516 54.875 18.1641L59.1875 17.8516C60.4375 17.7578 60.9062 17.3516 60.9062 16.3828V16.3203C60.9062 14.6016 59.3438 13.2578 57.3438 13.2578C55 13.2578 53.7188 14.2578 53.5 16.2578H50.2812C50.5 12.9453 53.25 10.8203 57.3125 10.8203C61.25 10.8203 64.0312 13.2891 64.0312 16.6953ZM53.3125 22.5703C53.3125 24.0391 54.5625 25.0078 56.5 25.0078C59.0312 25.0078 60.9062 23.1016 60.9062 20.5703V20.0391L55.9688 20.3516C54.2188 20.4766 53.3125 21.2266 53.3125 22.5703Z" fill="#090909"/>
<path d="M44.125 17.7305C44.125 14.8867 42.5938 13.668 40.2188 13.668C37.9688 13.668 36.25 15.2617 36.25 17.5117V27.1992H33.125V4.79297H36.25V13.6367C37.4062 11.8242 39.4062 10.793 41.3125 10.793C44.75 10.793 47.2188 13.0117 47.2188 17.0742V27.1992H44.125V17.7305Z" fill="#090909"/>
<path d="M0.90625 6.39062H4.21875L8.5625 23.5469L13.875 6.39062H17.5938L22.8125 23.5469L27.3125 6.39062H30.625L24.5625 27.2031H20.9063L15.6875 10.0469L10.5 27.2031H6.71875L0.90625 6.39062Z" fill="#090909"/>
<path fill-rule="evenodd" clip-rule="evenodd" d="M102.211 13.6268C102.598 11.3473 103.594 9.38405 105.198 7.73715C107.313 5.53738 110.035 4.4375 113.363 4.4375C116.691 4.4375 119.412 5.53738 121.527 7.73715C123.642 9.90871 124.7 12.6302 124.7 15.9017C124.7 18.4091 124.079 20.6018 122.836 22.4797C123.649 28.104 128.969 33.2178 131.647 35.1426C128.243 34.8115 121.886 32.1213 116.615 29.5968C116.615 29.5728 116.616 29.5487 116.616 29.5246C116.616 27.1077 114.656 25.1484 112.239 25.1484C110.942 25.1484 109.777 25.713 108.975 26.6098C107.553 26.0677 106.294 25.2339 105.198 24.1085C103.083 21.9087 102.025 19.1731 102.025 15.9017C102.025 15.7988 102.026 15.6965 102.029 15.5947C102.027 15.5208 102.026 15.4467 102.026 15.3724C102.026 14.776 102.089 14.1926 102.211 13.6268ZM110.194 24.0453C110.194 22.4232 110.352 21.263 110.667 20.5646C111.005 19.8662 111.625 19.1453 112.526 18.4019C112.796 18.1541 113.281 17.7936 113.979 17.3205C114.677 16.8474 115.173 16.4081 115.466 16.0026C115.781 15.5971 115.939 15.0789 115.939 14.4481C115.939 13.6821 115.669 13.0738 115.128 12.6233C114.587 12.1502 113.9 11.9136 113.067 11.9136C112.03 11.9136 111.197 12.229 110.566 12.8598C109.958 13.4681 109.654 14.3129 109.654 15.3943H104.213C104.258 12.9612 105.092 11.0125 106.714 9.54811C108.336 8.08374 110.532 7.35156 113.303 7.35156C115.826 7.35156 117.854 7.99363 119.386 9.27777C120.94 10.5394 121.718 12.1952 121.718 14.2453C121.718 15.2366 121.537 16.1152 121.177 16.8812C120.817 17.6472 120.445 18.2104 120.062 18.5708C119.679 18.9313 119.172 19.3143 118.541 19.7198C118.338 19.855 118.079 20.0239 117.764 20.2267C117.448 20.4069 117.212 20.5534 117.054 20.666L116.547 21.0039C116.345 21.1391 116.176 21.263 116.04 21.3757C115.928 21.4883 115.815 21.6122 115.703 21.7474C115.274 22.2881 115.06 23.0541 115.06 24.0453H110.194Z" fill="#1883FF"/>
</svg>
