<svg width="64" height="64" viewBox="0 0 64 64" fill="none" xmlns="http://www.w3.org/2000/svg">
<g clip-path="url(#clip0_4396_2241)">
<path d="M32 64C49.6731 64 64 49.6731 64 32C64 14.3269 49.6731 0 32 0C14.3269 0 0 14.3269 0 32C0 49.6731 14.3269 64 32 64Z" fill="#F8F9F9"/>
<path d="M62.0096 43.1299C63.296 39.6633 64 35.9138 64 31.9995C64 28.0853 63.296 24.3358 62.0096 20.8691H1.99038C0.704125 24.3358 0 28.0853 0 31.9995C0 35.9138 0.704125 39.6633 1.99038 43.1299L32 45.9125L62.0096 43.1299Z" fill="#0052B4"/>
<path d="M32.0018 64.0005C45.7607 64.0005 57.4901 55.3165 62.0114 43.1309H1.99219C6.51356 55.3165 18.2429 64.0005 32.0018 64.0005Z" fill="#F00000"/>
</g>
<defs>
<clipPath id="clip0_4396_2241">
<rect width="64" height="64" fill="white"/>
</clipPath>
</defs>
</svg>
