<svg width="739" height="100" viewBox="0 0 739 100" fill="none" xmlns="http://www.w3.org/2000/svg">
<rect y="18.1816" width="81.8182" height="81.8182" rx="40.9091" fill="#D2E4FA"/>
<g clip-path="url(#clip0_4080_192183)">
<mask id="mask0_4080_192183" style="mask-type:luminance" maskUnits="userSpaceOnUse" x="18" y="36" width="46" height="46">
<path d="M18.1816 36.3702H63.6362V81.8247H18.1816V36.3702Z" fill="white"/>
</mask>
<g mask="url(#mask0_4080_192183)">
<path d="M53.4265 76.942H50.6744V80.4932L44.4599 76.942H28.391C26.4298 76.942 24.8398 75.3522 24.8398 73.3909V57.4108C24.8398 55.4495 26.4298 53.8596 28.391 53.8596H53.4265C55.3877 53.8596 56.9776 55.4495 56.9776 57.4108V73.3909C56.9776 75.3522 55.3877 76.942 53.4265 76.942Z" stroke="#1883FF" stroke-width="2.66335" stroke-miterlimit="10" stroke-linecap="round" stroke-linejoin="round"/>
<path d="M60.5277 70.7275H56.9766V60.0741H60.5277C61.5083 60.0741 62.3033 60.8691 62.3033 61.8497V68.952C62.3033 69.9326 61.5083 70.7275 60.5277 70.7275Z" stroke="#1883FF" stroke-width="2.66335" stroke-miterlimit="10" stroke-linecap="round" stroke-linejoin="round"/>
<path d="M24.8404 70.7275H21.2892C20.3086 70.7275 19.5137 69.9326 19.5137 68.952V61.8497C19.5137 60.8691 20.3086 60.0741 21.2892 60.0741H24.8404V70.7275Z" stroke="#1883FF" stroke-width="2.66335" stroke-miterlimit="10" stroke-linecap="round" stroke-linejoin="round"/>
<path d="M44.459 61.8496C44.459 60.3787 45.6515 59.1863 47.1223 59.1863C48.5932 59.1863 49.7857 60.3787 49.7857 61.8496" stroke="#1883FF" stroke-width="2.66335" stroke-miterlimit="10" stroke-linecap="round" stroke-linejoin="round"/>
<path d="M37.358 61.8496C37.358 60.3787 36.1655 59.1863 34.6946 59.1863C33.2237 59.1863 32.0312 60.3787 32.0312 61.8496" stroke="#1883FF" stroke-width="2.66335" stroke-miterlimit="10" stroke-linecap="round" stroke-linejoin="round"/>
<path d="M36.627 69.8396C38.9944 72.2071 42.8257 72.2071 45.1932 69.8396" stroke="#1883FF" stroke-width="2.66335" stroke-miterlimit="10" stroke-linecap="round" stroke-linejoin="round"/>
<path d="M48.8993 48.5332H32.9192C31.4483 48.5332 30.2559 49.7256 30.2559 51.1965V53.8599H51.5627V51.1965C51.5627 49.7256 50.3702 48.5332 48.8993 48.5332Z" stroke="#1883FF" stroke-width="2.66335" stroke-miterlimit="10" stroke-linecap="round" stroke-linejoin="round"/>
<path d="M49.7857 40.365C49.7857 41.8358 48.5932 43.0283 47.1223 43.0283C45.6515 43.0283 44.459 41.8358 44.459 40.365C44.459 38.8941 45.6515 37.7016 47.1223 37.7016C48.5932 37.7016 49.7857 38.8941 49.7857 40.365Z" stroke="#1883FF" stroke-width="2.66335" stroke-miterlimit="10" stroke-linecap="round" stroke-linejoin="round"/>
<path d="M32.0312 40.3655C32.0312 41.8363 33.2237 43.0288 34.6946 43.0288C36.1655 43.0288 37.358 41.8363 37.358 40.3655C37.358 38.8946 36.1655 37.7021 34.6946 37.7021C33.2237 37.7021 32.0312 38.8946 32.0312 40.3655Z" stroke="#1883FF" stroke-width="2.66335" stroke-miterlimit="10" stroke-linecap="round" stroke-linejoin="round"/>
<path d="M47.125 43.0289V48.5332" stroke="#1883FF" stroke-width="2.66335" stroke-miterlimit="10" stroke-linecap="round" stroke-linejoin="round"/>
<path d="M34.6934 43.0289V48.5332" stroke="#1883FF" stroke-width="2.66335" stroke-miterlimit="10" stroke-linecap="round" stroke-linejoin="round"/>
</g>
</g>
<path d="M100.5 36.3636C100.5 16.5567 116.557 0.5 136.364 0.5H702.273C722.08 0.5 738.136 16.5567 738.136 36.3636V63.6364C738.136 83.4433 722.08 99.5 702.273 99.5H100.5V36.3636Z" stroke="#F9FAFB" stroke-opacity="0.3"/>
<path d="M134.279 61.2729L127.951 38.1325H130.799L135.635 56.9793H135.861L140.787 38.1325H143.951L148.877 56.9793H149.103L153.939 38.1325H156.787L150.459 61.2729H147.567L142.459 42.8329H142.279L137.171 61.2729H134.279ZM161.947 50.8326V61.2729H159.28V38.1325H161.947V46.6294H162.173C162.579 45.733 163.19 45.0211 164.003 44.4938C164.824 43.959 165.916 43.6916 167.28 43.6916C168.462 43.6916 169.498 43.9289 170.387 44.4034C171.276 44.8705 171.965 45.5898 172.455 46.5616C172.952 47.5257 173.201 48.7536 173.201 50.2451V61.2729H170.534V50.4258C170.534 49.0474 170.176 47.9815 169.461 47.2282C168.752 46.4674 167.769 46.087 166.511 46.087C165.638 46.087 164.854 46.2715 164.161 46.6407C163.476 47.0098 162.933 47.5483 162.534 48.2564C162.143 48.9645 161.947 49.8232 161.947 50.8326ZM182.55 61.6797C181.45 61.6797 180.452 61.4726 179.555 61.0583C178.659 60.6364 177.947 60.0301 177.42 59.2391C176.893 58.4406 176.629 57.4765 176.629 56.3466C176.629 55.3522 176.825 54.5462 177.217 53.9286C177.608 53.3033 178.132 52.8137 178.787 52.4597C179.442 52.1056 180.166 51.842 180.957 51.6687C181.755 51.488 182.557 51.3448 183.363 51.2394C184.418 51.1038 185.273 51.0021 185.928 50.9343C186.591 50.859 187.073 50.7347 187.374 50.5614C187.683 50.3882 187.838 50.0869 187.838 49.6575V49.5671C187.838 48.4523 187.533 47.586 186.922 46.9683C186.32 46.3506 185.405 46.0418 184.177 46.0418C182.904 46.0418 181.906 46.3205 181.183 46.8779C180.459 47.4354 179.951 48.0304 179.657 48.6632L177.126 47.7593C177.578 46.7047 178.181 45.8836 178.934 45.2961C179.695 44.701 180.523 44.2867 181.42 44.0532C182.324 43.8121 183.213 43.6916 184.086 43.6916C184.644 43.6916 185.284 43.7594 186.007 43.895C186.738 44.023 187.442 44.2904 188.12 44.6972C188.806 45.104 189.374 45.7179 189.826 46.539C190.278 47.36 190.504 48.4598 190.504 49.8383V61.2729H187.838V58.9227H187.702C187.521 59.2994 187.22 59.7024 186.798 60.1317C186.376 60.5611 185.815 60.9264 185.115 61.2278C184.414 61.5291 183.559 61.6797 182.55 61.6797ZM182.956 59.2843C184.011 59.2843 184.9 59.0772 185.623 58.6629C186.354 58.2486 186.904 57.7137 187.273 57.0584C187.649 56.403 187.838 55.7138 187.838 54.9907V52.5501C187.725 52.6857 187.476 52.8099 187.092 52.9229C186.715 53.0284 186.278 53.1226 185.781 53.2054C185.292 53.2807 184.813 53.3485 184.346 53.4088C183.887 53.4615 183.514 53.5067 183.228 53.5444C182.535 53.6348 181.887 53.7817 181.284 53.985C180.689 54.1809 180.207 54.4784 179.838 54.8777C179.476 55.2694 179.296 55.8042 179.296 56.4821C179.296 57.4087 179.638 58.1092 180.324 58.5838C181.017 59.0508 181.894 59.2843 182.956 59.2843ZM202.283 43.9176V46.1774H193.289V43.9176H202.283ZM195.91 39.7595H198.577V56.3014C198.577 57.0546 198.686 57.6196 198.904 57.9962C199.13 58.3653 199.417 58.6139 199.763 58.742C200.117 58.8625 200.49 58.9227 200.882 58.9227C201.175 58.9227 201.417 58.9077 201.605 58.8775C201.793 58.8399 201.944 58.8098 202.057 58.7872L202.599 61.1826C202.418 61.2504 202.166 61.3181 201.842 61.3859C201.518 61.4613 201.108 61.4989 200.611 61.4989C199.857 61.4989 199.119 61.337 198.396 61.0131C197.68 60.6892 197.085 60.1958 196.611 59.5329C196.144 58.87 195.91 58.0339 195.91 57.0245V39.7595ZM213.97 61.2729V43.9176H216.637V61.2729H213.97ZM215.326 41.025C214.806 41.025 214.358 40.848 213.981 40.494C213.612 40.1399 213.428 39.7143 213.428 39.2172C213.428 38.72 213.612 38.2944 213.981 37.9404C214.358 37.5863 214.806 37.4093 215.326 37.4093C215.846 37.4093 216.29 37.5863 216.659 37.9404C217.036 38.2944 217.224 38.72 217.224 39.2172C217.224 39.7143 217.036 40.1399 216.659 40.494C216.29 40.848 215.846 41.025 215.326 41.025ZM233.178 47.8045L230.782 48.4824C230.632 48.0832 230.409 47.6952 230.116 47.3186C229.829 46.9344 229.438 46.6181 228.941 46.3695C228.443 46.1209 227.807 45.9966 227.031 45.9966C225.969 45.9966 225.084 46.2414 224.376 46.731C223.675 47.2131 223.325 47.8271 223.325 48.5728C223.325 49.2357 223.566 49.7592 224.048 50.1434C224.53 50.5275 225.283 50.8477 226.308 51.1038L228.884 51.7365C230.436 52.1132 231.592 52.6894 232.353 53.4653C233.114 54.2336 233.494 55.2242 233.494 56.4369C233.494 57.4313 233.208 58.3201 232.635 59.1035C232.07 59.8869 231.279 60.5046 230.263 60.9566C229.246 61.4085 228.063 61.6345 226.715 61.6345C224.944 61.6345 223.479 61.2504 222.319 60.482C221.159 59.7137 220.425 58.5913 220.116 57.1149L222.647 56.4821C222.888 57.4162 223.344 58.1167 224.014 58.5838C224.692 59.0508 225.577 59.2843 226.669 59.2843C227.912 59.2843 228.899 59.0207 229.63 58.4934C230.368 57.9586 230.737 57.3183 230.737 56.5725C230.737 55.9699 230.526 55.4652 230.104 55.0585C229.683 54.6442 229.035 54.3353 228.161 54.1319L225.268 53.454C223.679 53.0774 222.511 52.4936 221.766 51.7026C221.027 50.9042 220.658 49.9061 220.658 48.7084C220.658 47.7291 220.933 46.8629 221.483 46.1096C222.041 45.3563 222.798 44.765 223.754 44.3356C224.718 43.9063 225.811 43.6916 227.031 43.6916C228.748 43.6916 230.097 44.0682 231.076 44.8215C232.063 45.5748 232.763 46.5691 233.178 47.8045ZM252.461 61.6345C250.789 61.6345 249.346 61.2654 248.133 60.5272C246.928 59.7815 245.998 58.742 245.342 57.4087C244.695 56.0678 244.371 54.5086 244.371 52.7309C244.371 50.9531 244.695 49.3863 245.342 48.0304C245.998 46.667 246.909 45.6049 248.077 44.8441C249.252 44.0758 250.623 43.6916 252.19 43.6916C253.094 43.6916 253.986 43.8422 254.868 44.1436C255.749 44.4449 256.551 44.9345 257.274 45.6124C257.997 46.2828 258.574 47.1717 259.003 48.279C259.432 49.3863 259.647 50.7497 259.647 52.3693V53.4992H246.269V51.1942H256.935C256.935 50.2149 256.739 49.3411 256.348 48.5728C255.964 47.8045 255.414 47.1981 254.698 46.7536C253.99 46.3092 253.154 46.087 252.19 46.087C251.128 46.087 250.209 46.3506 249.433 46.8779C248.664 47.3977 248.073 48.0756 247.659 48.9118C247.244 49.7479 247.037 50.6443 247.037 51.6009V53.1376C247.037 54.4483 247.263 55.5594 247.715 56.4708C248.175 57.3748 248.811 58.064 249.625 58.5386C250.438 59.0056 251.384 59.2391 252.461 59.2391C253.161 59.2391 253.794 59.1412 254.359 58.9453C254.932 58.742 255.425 58.4406 255.839 58.0414C256.254 57.6346 256.574 57.13 256.8 56.5273L259.376 57.2505C259.105 58.1243 258.649 58.8926 258.009 59.5555C257.368 60.2108 256.577 60.7231 255.636 61.0922C254.694 61.4537 253.636 61.6345 252.461 61.6345ZM264.59 43.9176L268.748 51.0134L272.906 43.9176H275.979L270.375 52.5953L275.979 61.2729H272.906L268.748 54.5387L264.59 61.2729H261.516L267.03 52.5953L261.516 43.9176H264.59ZM284.255 61.6797C283.155 61.6797 282.157 61.4726 281.261 61.0583C280.364 60.6364 279.652 60.0301 279.125 59.2391C278.598 58.4406 278.334 57.4765 278.334 56.3466C278.334 55.3522 278.53 54.5462 278.922 53.9286C279.313 53.3033 279.837 52.8137 280.492 52.4597C281.148 52.1056 281.871 51.842 282.662 51.6687C283.46 51.488 284.262 51.3448 285.068 51.2394C286.123 51.1038 286.978 51.0021 287.633 50.9343C288.296 50.859 288.778 50.7347 289.08 50.5614C289.388 50.3882 289.543 50.0869 289.543 49.6575V49.5671C289.543 48.4523 289.238 47.586 288.628 46.9683C288.025 46.3506 287.11 46.0418 285.882 46.0418C284.609 46.0418 283.611 46.3205 282.888 46.8779C282.164 47.4354 281.656 48.0304 281.362 48.6632L278.831 47.7593C279.283 46.7047 279.886 45.8836 280.639 45.2961C281.4 44.701 282.229 44.2867 283.125 44.0532C284.029 43.8121 284.918 43.6916 285.791 43.6916C286.349 43.6916 286.989 43.7594 287.712 43.895C288.443 44.023 289.147 44.2904 289.825 44.6972C290.511 45.104 291.079 45.7179 291.531 46.539C291.983 47.36 292.209 48.4598 292.209 49.8383V61.2729H289.543V58.9227H289.407C289.226 59.2994 288.925 59.7024 288.503 60.1317C288.081 60.5611 287.52 60.9264 286.82 61.2278C286.119 61.5291 285.264 61.6797 284.255 61.6797ZM284.662 59.2843C285.716 59.2843 286.605 59.0772 287.328 58.6629C288.059 58.2486 288.609 57.7137 288.978 57.0584C289.354 56.403 289.543 55.7138 289.543 54.9907V52.5501C289.43 52.6857 289.181 52.8099 288.797 52.9229C288.42 53.0284 287.984 53.1226 287.486 53.2054C286.997 53.2807 286.518 53.3485 286.051 53.4088C285.592 53.4615 285.219 53.5067 284.933 53.5444C284.24 53.6348 283.592 53.7817 282.989 53.985C282.394 54.1809 281.912 54.4784 281.543 54.8777C281.181 55.2694 281.001 55.8042 281.001 56.4821C281.001 57.4087 281.343 58.1092 282.029 58.5838C282.722 59.0508 283.599 59.2843 284.662 59.2843ZM303.491 61.6345C301.864 61.6345 300.463 61.2504 299.287 60.482C298.112 59.7137 297.208 58.6553 296.576 57.307C295.943 55.9586 295.627 54.4182 295.627 52.6857C295.627 50.923 295.95 49.3675 296.598 48.0191C297.254 46.6633 298.165 45.6049 299.333 44.8441C300.508 44.0758 301.879 43.6916 303.445 43.6916C304.666 43.6916 305.766 43.9176 306.745 44.3695C307.724 44.8215 308.526 45.4543 309.152 46.2678C309.777 47.0813 310.165 48.0304 310.315 49.1151H307.649C307.445 48.3242 306.993 47.6237 306.293 47.0135C305.6 46.3958 304.666 46.087 303.491 46.087C302.451 46.087 301.54 46.3582 300.756 46.9005C299.98 47.4354 299.374 48.1924 298.937 49.1716C298.508 50.1434 298.293 51.2846 298.293 52.5953C298.293 53.9361 298.504 55.1037 298.926 56.098C299.355 57.0923 299.958 57.8644 300.734 58.4143C301.517 58.9642 302.436 59.2391 303.491 59.2391C304.184 59.2391 304.813 59.1186 305.378 58.8775C305.943 58.6365 306.421 58.29 306.813 57.838C307.204 57.3861 307.483 56.8437 307.649 56.211H310.315C310.165 57.2354 309.792 58.1582 309.197 58.9792C308.609 59.7928 307.83 60.4406 306.858 60.9227C305.894 61.3972 304.771 61.6345 303.491 61.6345ZM321.125 43.9176V46.1774H312.131V43.9176H321.125ZM314.752 39.7595H317.419V56.3014C317.419 57.0546 317.528 57.6196 317.747 57.9962C317.972 58.3653 318.259 58.6139 318.605 58.742C318.959 58.8625 319.332 58.9227 319.724 58.9227C320.018 58.9227 320.259 58.9077 320.447 58.8775C320.635 58.8399 320.786 58.8098 320.899 58.7872L321.441 61.1826C321.261 61.2504 321.008 61.3181 320.684 61.3859C320.36 61.4613 319.95 61.4989 319.453 61.4989C318.699 61.4989 317.961 61.337 317.238 61.0131C316.522 60.6892 315.927 60.1958 315.453 59.5329C314.986 58.87 314.752 58.0339 314.752 57.0245V39.7595ZM327.539 38.1325V61.2729H324.873V38.1325H327.539ZM333.504 67.7812C333.052 67.7812 332.649 67.7436 332.295 67.6682C331.941 67.6004 331.696 67.5326 331.561 67.4648L332.239 65.1146C332.887 65.2804 333.459 65.3406 333.956 65.2954C334.453 65.2502 334.894 65.028 335.278 64.6288C335.67 64.2371 336.028 63.6006 336.352 62.7192L336.849 61.3633L330.431 43.9176H333.324L338.114 57.7476H338.295L343.086 43.9176H345.978L338.611 63.8039C338.28 64.7003 337.87 65.4423 337.38 66.0299C336.89 66.6249 336.322 67.0656 335.674 67.3518C335.033 67.6381 334.31 67.7812 333.504 67.7812ZM358.892 67.7812C358.44 67.7812 358.037 67.7436 357.683 67.6682C357.329 67.6004 357.084 67.5326 356.948 67.4648L357.626 65.1146C358.274 65.2804 358.847 65.3406 359.344 65.2954C359.841 65.2502 360.282 65.028 360.666 64.6288C361.057 64.2371 361.415 63.6006 361.739 62.7192L362.236 61.3633L355.818 43.9176H358.711L363.502 57.7476H363.683L368.473 43.9176H371.366L363.999 63.8039C363.667 64.7003 363.257 65.4423 362.767 66.0299C362.278 66.6249 361.709 67.0656 361.061 67.3518C360.421 67.6381 359.698 67.7812 358.892 67.7812ZM380.678 61.6345C379.112 61.6345 377.737 61.2617 376.554 60.5159C375.379 59.7702 374.46 58.7269 373.797 57.3861C373.142 56.0452 372.814 54.4784 372.814 52.6857C372.814 50.8778 373.142 49.2997 373.797 47.9513C374.46 46.603 375.379 45.5559 376.554 44.8102C377.737 44.0645 379.112 43.6916 380.678 43.6916C382.245 43.6916 383.616 44.0645 384.791 44.8102C385.974 45.5559 386.893 46.603 387.548 47.9513C388.211 49.2997 388.543 50.8778 388.543 52.6857C388.543 54.4784 388.211 56.0452 387.548 57.3861C386.893 58.7269 385.974 59.7702 384.791 60.5159C383.616 61.2617 382.245 61.6345 380.678 61.6345ZM380.678 59.2391C381.869 59.2391 382.848 58.934 383.616 58.3239C384.384 57.7137 384.953 56.9115 385.322 55.9172C385.691 54.9229 385.876 53.8457 385.876 52.6857C385.876 51.5256 385.691 50.4447 385.322 49.4428C384.953 48.441 384.384 47.6312 383.616 47.0135C382.848 46.3958 381.869 46.087 380.678 46.087C379.488 46.087 378.509 46.3958 377.741 47.0135C376.972 47.6312 376.404 48.441 376.034 49.4428C375.665 50.4447 375.481 51.5256 375.481 52.6857C375.481 53.8457 375.665 54.9229 376.034 55.9172C376.404 56.9115 376.972 57.7137 377.741 58.3239C378.509 58.934 379.488 59.2391 380.678 59.2391ZM402.914 54.1771V43.9176H405.581V61.2729H402.914V58.3352H402.733C402.327 59.2165 401.694 59.966 400.835 60.5837C399.976 61.1939 398.892 61.4989 397.581 61.4989C396.496 61.4989 395.532 61.2617 394.688 60.7871C393.845 60.305 393.182 59.5819 392.7 58.6177C392.218 57.6459 391.977 56.4219 391.977 54.9455V43.9176H394.643V54.7647C394.643 56.0302 394.997 57.0396 395.705 57.7928C396.421 58.5461 397.332 58.9227 398.44 58.9227C399.103 58.9227 399.777 58.7533 400.462 58.4143C401.155 58.0753 401.735 57.5556 402.202 56.855C402.677 56.1545 402.914 55.2618 402.914 54.1771ZM409.828 61.2729V43.9176H412.405V46.539H412.585C412.902 45.6802 413.474 44.9835 414.303 44.4486C415.131 43.9138 416.065 43.6464 417.105 43.6464C417.301 43.6464 417.546 43.6502 417.839 43.6577C418.133 43.6652 418.355 43.6765 418.506 43.6916V46.4034C418.416 46.3808 418.209 46.3469 417.885 46.3017C417.568 46.249 417.233 46.2226 416.879 46.2226C416.035 46.2226 415.282 46.3996 414.619 46.7536C413.964 47.1001 413.444 47.5822 413.06 48.1999C412.683 48.8101 412.495 49.5069 412.495 50.2903V61.2729H409.828ZM441.185 67.7812V58.6064H440.959C440.763 58.9227 440.484 59.322 440.122 59.8041C439.761 60.2786 439.245 60.7042 438.574 61.0809C437.904 61.45 437.011 61.6345 435.897 61.6345C434.45 61.6345 433.174 61.2692 432.066 60.5385C430.959 59.8003 430.093 58.7608 429.467 57.42C428.842 56.0716 428.53 54.4784 428.53 52.6405C428.53 50.8175 428.842 49.2357 429.467 47.8948C430.093 46.554 430.963 45.5183 432.078 44.7876C433.192 44.0569 434.48 43.6916 435.942 43.6916C437.072 43.6916 437.964 43.8799 438.62 44.2565C439.283 44.6257 439.787 45.0475 440.134 45.522C440.488 45.9891 440.763 46.3732 440.959 46.6745H441.275V43.9176H443.851V67.7812H441.185ZM436.258 59.2391C437.328 59.2391 438.232 58.9604 438.97 58.403C439.708 57.838 440.269 57.0584 440.653 56.0641C441.038 55.0622 441.23 53.906 441.23 52.5953C441.23 51.2996 441.041 50.166 440.665 49.1942C440.288 48.215 439.731 47.4542 438.993 46.9118C438.254 46.3619 437.343 46.087 436.258 46.087C435.128 46.087 434.187 46.377 433.433 46.957C432.688 47.5295 432.126 48.3091 431.75 49.2959C431.381 50.2752 431.196 51.375 431.196 52.5953C431.196 53.8306 431.384 54.953 431.761 55.9624C432.145 56.9642 432.71 57.7627 433.456 58.3578C434.209 58.9453 435.143 59.2391 436.258 59.2391ZM459.033 54.1771V43.9176H461.7V61.2729H459.033V58.3352H458.853C458.446 59.2165 457.813 59.966 456.954 60.5837C456.096 61.1939 455.011 61.4989 453.7 61.4989C452.616 61.4989 451.651 61.2617 450.808 60.7871C449.964 60.305 449.301 59.5819 448.819 58.6177C448.337 57.6459 448.096 56.4219 448.096 54.9455V43.9176H450.763V54.7647C450.763 56.0302 451.117 57.0396 451.825 57.7928C452.54 58.5461 453.452 58.9227 454.559 58.9227C455.222 58.9227 455.896 58.7533 456.582 58.4143C457.275 58.0753 457.855 57.5556 458.322 56.855C458.796 56.1545 459.033 55.2618 459.033 54.1771ZM473.224 61.6345C471.552 61.6345 470.11 61.2654 468.897 60.5272C467.692 59.7815 466.761 58.742 466.106 57.4087C465.458 56.0678 465.134 54.5086 465.134 52.7309C465.134 50.9531 465.458 49.3863 466.106 48.0304C466.761 46.667 467.673 45.6049 468.84 44.8441C470.015 44.0758 471.386 43.6916 472.953 43.6916C473.857 43.6916 474.75 43.8422 475.631 44.1436C476.512 44.4449 477.315 44.9345 478.038 45.6124C478.761 46.2828 479.337 47.1717 479.766 48.279C480.196 49.3863 480.411 50.7497 480.411 52.3693V53.4992H467.032V51.1942H477.699C477.699 50.2149 477.503 49.3411 477.111 48.5728C476.727 47.8045 476.177 47.1981 475.462 46.7536C474.753 46.3092 473.917 46.087 472.953 46.087C471.891 46.087 470.972 46.3506 470.196 46.8779C469.428 47.3977 468.837 48.0756 468.422 48.9118C468.008 49.7479 467.801 50.6443 467.801 51.6009V53.1376C467.801 54.4483 468.027 55.5594 468.479 56.4708C468.938 57.3748 469.575 58.064 470.388 58.5386C471.202 59.0056 472.147 59.2391 473.224 59.2391C473.925 59.2391 474.558 59.1412 475.123 58.9453C475.695 58.742 476.188 58.4406 476.603 58.0414C477.017 57.6346 477.337 57.13 477.563 56.5273L480.139 57.2505C479.868 58.1243 479.412 58.8926 478.772 59.5555C478.132 60.2108 477.341 60.7231 476.399 61.0922C475.458 61.4537 474.399 61.6345 473.224 61.6345ZM496.124 47.8045L493.729 48.4824C493.578 48.0832 493.356 47.6952 493.062 47.3186C492.776 46.9344 492.384 46.6181 491.887 46.3695C491.39 46.1209 490.753 45.9966 489.977 45.9966C488.915 45.9966 488.03 46.2414 487.322 46.731C486.621 47.2131 486.271 47.8271 486.271 48.5728C486.271 49.2357 486.512 49.7592 486.994 50.1434C487.476 50.5275 488.23 50.8477 489.254 51.1038L491.83 51.7365C493.382 52.1132 494.538 52.6894 495.299 53.4653C496.06 54.2336 496.44 55.2242 496.44 56.4369C496.44 57.4313 496.154 58.3201 495.582 59.1035C495.017 59.8869 494.226 60.5046 493.209 60.9566C492.192 61.4085 491.009 61.6345 489.661 61.6345C487.891 61.6345 486.426 61.2504 485.266 60.482C484.105 59.7137 483.371 58.5913 483.062 57.1149L485.593 56.4821C485.834 57.4162 486.29 58.1167 486.96 58.5838C487.638 59.0508 488.523 59.2843 489.616 59.2843C490.859 59.2843 491.845 59.0207 492.576 58.4934C493.314 57.9586 493.683 57.3183 493.683 56.5725C493.683 55.9699 493.472 55.4652 493.051 55.0585C492.629 54.6442 491.981 54.3353 491.107 54.1319L488.215 53.454C486.625 53.0774 485.458 52.4936 484.712 51.7026C483.974 50.9042 483.605 49.9061 483.605 48.7084C483.605 47.7291 483.879 46.8629 484.429 46.1096C484.987 45.3563 485.744 44.765 486.7 44.3356C487.665 43.9063 488.757 43.6916 489.977 43.6916C491.695 43.6916 493.043 44.0682 494.022 44.8215C495.009 45.5748 495.71 46.5691 496.124 47.8045ZM507.366 43.9176V46.1774H498.372V43.9176H507.366ZM500.993 39.7595H503.66V56.3014C503.66 57.0546 503.769 57.6196 503.987 57.9962C504.213 58.3653 504.5 58.6139 504.846 58.742C505.2 58.8625 505.573 58.9227 505.965 58.9227C506.258 58.9227 506.499 58.9077 506.688 58.8775C506.876 58.8399 507.027 58.8098 507.14 58.7872L507.682 61.1826C507.501 61.2504 507.249 61.3181 506.925 61.3859C506.601 61.4613 506.191 61.4989 505.693 61.4989C504.94 61.4989 504.202 61.337 503.479 61.0131C502.763 60.6892 502.168 60.1958 501.694 59.5329C501.227 58.87 500.993 58.0339 500.993 57.0245V39.7595ZM510.74 61.2729V43.9176H513.407V61.2729H510.74ZM512.096 41.025C511.577 41.025 511.128 40.848 510.752 40.494C510.383 40.1399 510.198 39.7143 510.198 39.2172C510.198 38.72 510.383 38.2944 510.752 37.9404C511.128 37.5863 511.577 37.4093 512.096 37.4093C512.616 37.4093 513.061 37.5863 513.43 37.9404C513.806 38.2944 513.995 38.72 513.995 39.2172C513.995 39.7143 513.806 40.1399 513.43 40.494C513.061 40.848 512.616 41.025 512.096 41.025ZM524.705 61.6345C523.139 61.6345 521.764 61.2617 520.581 60.5159C519.406 59.7702 518.487 58.7269 517.824 57.3861C517.169 56.0452 516.841 54.4784 516.841 52.6857C516.841 50.8778 517.169 49.2997 517.824 47.9513C518.487 46.603 519.406 45.5559 520.581 44.8102C521.764 44.0645 523.139 43.6916 524.705 43.6916C526.272 43.6916 527.643 44.0645 528.818 44.8102C530.001 45.5559 530.92 46.603 531.575 47.9513C532.238 49.2997 532.57 50.8778 532.57 52.6857C532.57 54.4784 532.238 56.0452 531.575 57.3861C530.92 58.7269 530.001 59.7702 528.818 60.5159C527.643 61.2617 526.272 61.6345 524.705 61.6345ZM524.705 59.2391C525.896 59.2391 526.875 58.934 527.643 58.3239C528.411 57.7137 528.98 56.9115 529.349 55.9172C529.718 54.9229 529.903 53.8457 529.903 52.6857C529.903 51.5256 529.718 50.4447 529.349 49.4428C528.98 48.441 528.411 47.6312 527.643 47.0135C526.875 46.3958 525.896 46.087 524.705 46.087C523.515 46.087 522.536 46.3958 521.768 47.0135C520.999 47.6312 520.431 48.441 520.061 49.4428C519.692 50.4447 519.508 51.5256 519.508 52.6857C519.508 53.8457 519.692 54.9229 520.061 55.9172C520.431 56.9115 520.999 57.7137 521.768 58.3239C522.536 58.934 523.515 59.2391 524.705 59.2391ZM538.67 50.8326V61.2729H536.004V43.9176H538.58V46.6294H538.806C539.213 45.748 539.83 45.04 540.659 44.5051C541.487 43.9628 542.557 43.6916 543.868 43.6916C545.043 43.6916 546.071 43.9326 546.952 44.4147C547.834 44.8893 548.519 45.6124 549.009 46.5842C549.499 47.5483 549.743 48.7686 549.743 50.2451V61.2729H547.077V50.4258C547.077 49.0624 546.723 48.0003 546.015 47.2395C545.307 46.4712 544.335 46.087 543.099 46.087C542.248 46.087 541.487 46.2715 540.817 46.6407C540.154 47.0098 539.631 47.5483 539.246 48.2564C538.862 48.9645 538.67 49.8232 538.67 50.8326ZM557.46 54.7647V54.6291C557.475 53.1903 557.625 52.0454 557.912 51.1942C558.198 50.343 558.605 49.6537 559.132 49.1264C559.659 48.5992 560.292 48.1133 561.03 47.6689C561.475 47.3977 561.874 47.0775 562.228 46.7084C562.582 46.3318 562.861 45.8987 563.064 45.4091C563.275 44.9194 563.38 44.3771 563.38 43.782C563.38 43.0438 563.207 42.4035 562.861 41.8611C562.514 41.3188 562.051 40.9007 561.471 40.6069C560.891 40.3132 560.247 40.1663 559.539 40.1663C558.921 40.1663 558.326 40.2943 557.754 40.5505C557.181 40.8066 556.703 41.2096 556.319 41.7595C555.934 42.3093 555.712 43.0287 555.652 43.9176H552.805C552.865 42.637 553.196 41.541 553.799 40.6295C554.409 39.7181 555.211 39.0213 556.206 38.5392C557.207 38.0571 558.319 37.8161 559.539 37.8161C560.865 37.8161 562.017 38.0797 562.996 38.607C563.983 39.1343 564.744 39.8574 565.279 40.7764C565.821 41.6954 566.092 42.7425 566.092 43.9176C566.092 44.7462 565.964 45.4957 565.708 46.1661C565.46 46.8365 565.098 47.4354 564.623 47.9626C564.156 48.4899 563.591 48.957 562.929 49.3637C562.266 49.778 561.735 50.2149 561.335 50.6744C560.936 51.1264 560.646 51.665 560.465 52.2902C560.285 52.9154 560.187 53.695 560.172 54.6291V54.7647H557.46ZM558.906 61.4537C558.349 61.4537 557.87 61.2541 557.471 60.8549C557.072 60.4556 556.872 59.9773 556.872 59.4199C556.872 58.8625 557.072 58.3842 557.471 57.9849C557.87 57.5857 558.349 57.3861 558.906 57.3861C559.463 57.3861 559.942 57.5857 560.341 57.9849C560.74 58.3842 560.94 58.8625 560.94 59.4199C560.94 59.789 560.846 60.128 560.657 60.4368C560.477 60.7457 560.232 60.9942 559.923 61.1826C559.622 61.3633 559.283 61.4537 558.906 61.4537Z" fill="#F9FAFB"/>
<defs>
<clipPath id="clip0_4080_192183">
<rect width="45.4545" height="45.4545" fill="white" transform="translate(18.1816 36.3638)"/>
</clipPath>
</defs>
</svg>
