<svg width="739" height="100" viewBox="0 0 739 100" fill="none" xmlns="http://www.w3.org/2000/svg">
<rect y="18.1816" width="81.8182" height="81.8182" rx="40.9091" fill="#D2E4FA"/>
<g clip-path="url(#clip0_4248_45641)">
<mask id="mask0_4248_45641" style="mask-type:luminance" maskUnits="userSpaceOnUse" x="18" y="36" width="46" height="46">
<path d="M18.1816 36.3702H63.6362V81.8247H18.1816V36.3702Z" fill="white"/>
</mask>
<g mask="url(#mask0_4248_45641)">
<path d="M53.4265 76.942H50.6744V80.4932L44.4599 76.942H28.391C26.4298 76.942 24.8398 75.3522 24.8398 73.3909V57.4108C24.8398 55.4495 26.4298 53.8596 28.391 53.8596H53.4265C55.3877 53.8596 56.9776 55.4495 56.9776 57.4108V73.3909C56.9776 75.3522 55.3877 76.942 53.4265 76.942Z" stroke="#1883FF" stroke-width="2.66335" stroke-miterlimit="10" stroke-linecap="round" stroke-linejoin="round"/>
<path d="M60.5277 70.7275H56.9766V60.0741H60.5277C61.5083 60.0741 62.3033 60.8691 62.3033 61.8497V68.952C62.3033 69.9326 61.5083 70.7275 60.5277 70.7275Z" stroke="#1883FF" stroke-width="2.66335" stroke-miterlimit="10" stroke-linecap="round" stroke-linejoin="round"/>
<path d="M24.8404 70.7275H21.2892C20.3086 70.7275 19.5137 69.9326 19.5137 68.952V61.8497C19.5137 60.8691 20.3086 60.0741 21.2892 60.0741H24.8404V70.7275Z" stroke="#1883FF" stroke-width="2.66335" stroke-miterlimit="10" stroke-linecap="round" stroke-linejoin="round"/>
<path d="M44.459 61.8496C44.459 60.3787 45.6515 59.1863 47.1223 59.1863C48.5932 59.1863 49.7857 60.3787 49.7857 61.8496" stroke="#1883FF" stroke-width="2.66335" stroke-miterlimit="10" stroke-linecap="round" stroke-linejoin="round"/>
<path d="M37.358 61.8496C37.358 60.3787 36.1655 59.1863 34.6946 59.1863C33.2237 59.1863 32.0312 60.3787 32.0312 61.8496" stroke="#1883FF" stroke-width="2.66335" stroke-miterlimit="10" stroke-linecap="round" stroke-linejoin="round"/>
<path d="M36.627 69.8396C38.9944 72.2071 42.8257 72.2071 45.1932 69.8396" stroke="#1883FF" stroke-width="2.66335" stroke-miterlimit="10" stroke-linecap="round" stroke-linejoin="round"/>
<path d="M48.8993 48.5332H32.9192C31.4483 48.5332 30.2559 49.7256 30.2559 51.1965V53.8599H51.5627V51.1965C51.5627 49.7256 50.3702 48.5332 48.8993 48.5332Z" stroke="#1883FF" stroke-width="2.66335" stroke-miterlimit="10" stroke-linecap="round" stroke-linejoin="round"/>
<path d="M49.7857 40.365C49.7857 41.8358 48.5932 43.0283 47.1223 43.0283C45.6515 43.0283 44.459 41.8358 44.459 40.365C44.459 38.8941 45.6515 37.7016 47.1223 37.7016C48.5932 37.7016 49.7857 38.8941 49.7857 40.365Z" stroke="#1883FF" stroke-width="2.66335" stroke-miterlimit="10" stroke-linecap="round" stroke-linejoin="round"/>
<path d="M32.0312 40.3655C32.0312 41.8363 33.2237 43.0288 34.6946 43.0288C36.1655 43.0288 37.358 41.8363 37.358 40.3655C37.358 38.8946 36.1655 37.7021 34.6946 37.7021C33.2237 37.7021 32.0312 38.8946 32.0312 40.3655Z" stroke="#1883FF" stroke-width="2.66335" stroke-miterlimit="10" stroke-linecap="round" stroke-linejoin="round"/>
<path d="M47.125 43.0289V48.5332" stroke="#1883FF" stroke-width="2.66335" stroke-miterlimit="10" stroke-linecap="round" stroke-linejoin="round"/>
<path d="M34.6934 43.0289V48.5332" stroke="#1883FF" stroke-width="2.66335" stroke-miterlimit="10" stroke-linecap="round" stroke-linejoin="round"/>
</g>
</g>
<path d="M100.5 36.3636C100.5 16.5567 116.557 0.5 136.364 0.5H702.273C722.08 0.5 738.136 16.5567 738.136 36.3636V63.6364C738.136 83.4433 722.08 99.5 702.273 99.5H100.5V36.3636Z" stroke="#F9FAFB" stroke-opacity="0.3"/>
<path d="M130.076 61.2729V38.1325H138.166C139.778 38.1325 141.107 38.4112 142.154 38.9686C143.201 39.5185 143.981 40.2604 144.493 41.1945C145.005 42.121 145.262 43.1492 145.262 44.2791C145.262 45.2735 145.085 46.0945 144.731 46.7423C144.384 47.3902 143.925 47.9024 143.352 48.279C142.787 48.6557 142.173 48.9344 141.51 49.1151V49.3411C142.218 49.3863 142.93 49.6349 143.646 50.0869C144.361 50.5388 144.96 51.1866 145.442 52.0303C145.924 52.874 146.165 53.906 146.165 55.1263C146.165 56.2863 145.902 57.3296 145.375 58.2561C144.847 59.1826 144.015 59.9171 142.877 60.4594C141.74 61.0018 140.26 61.2729 138.437 61.2729H130.076ZM132.878 58.7872H138.437C140.267 58.7872 141.567 58.4331 142.335 57.725C143.111 57.0094 143.499 56.1432 143.499 55.1263C143.499 54.3429 143.299 53.6197 142.9 52.9568C142.501 52.2864 141.932 51.7516 141.194 51.3524C140.456 50.9456 139.582 50.7422 138.573 50.7422H132.878V58.7872ZM132.878 48.3016H138.075C138.919 48.3016 139.68 48.1359 140.358 47.8045C141.043 47.473 141.586 47.006 141.985 46.4034C142.392 45.8008 142.595 45.0927 142.595 44.2791C142.595 43.2622 142.241 42.3997 141.533 41.6917C140.825 40.9761 139.702 40.6182 138.166 40.6182H132.878V48.3016ZM171.463 43.9176V61.2729H168.796V43.9176H171.463ZM170.423 52.1885V54.6743C169.82 54.9003 169.222 55.0999 168.626 55.2731C168.031 55.4389 167.406 55.5707 166.751 55.6686C166.095 55.759 165.376 55.8042 164.593 55.8042C162.627 55.8042 161.049 55.2731 159.858 54.211C158.676 53.1489 158.084 51.5557 158.084 49.4315V43.8724H160.751V49.4315C160.751 50.3204 160.92 51.0511 161.259 51.6235C161.598 52.196 162.058 52.6216 162.638 52.9003C163.218 53.179 163.87 53.3184 164.593 53.3184C165.723 53.3184 166.743 53.2167 167.655 53.0133C168.574 52.8024 169.496 52.5275 170.423 52.1885ZM182.995 61.6345C181.323 61.6345 179.88 61.2654 178.668 60.5272C177.462 59.7815 176.532 58.742 175.877 57.4087C175.229 56.0678 174.905 54.5086 174.905 52.7309C174.905 50.9531 175.229 49.3863 175.877 48.0304C176.532 46.667 177.444 45.6049 178.611 44.8441C179.786 44.0758 181.157 43.6916 182.724 43.6916C183.628 43.6916 184.521 43.8422 185.402 44.1436C186.283 44.4449 187.086 44.9345 187.809 45.6124C188.532 46.2828 189.108 47.1717 189.537 48.279C189.967 49.3863 190.181 50.7497 190.181 52.3693V53.4992H176.803V51.1942H187.47C187.47 50.2149 187.274 49.3411 186.882 48.5728C186.498 47.8045 185.948 47.1981 185.232 46.7536C184.524 46.3092 183.688 46.087 182.724 46.087C181.662 46.087 180.743 46.3506 179.967 46.8779C179.199 47.3977 178.607 48.0756 178.193 48.9118C177.779 49.7479 177.572 50.6443 177.572 51.6009V53.1376C177.572 54.4483 177.798 55.5594 178.25 56.4708C178.709 57.3748 179.346 58.064 180.159 58.5386C180.973 59.0056 181.918 59.2391 182.995 59.2391C183.696 59.2391 184.329 59.1412 184.894 58.9453C185.466 58.742 185.959 58.4406 186.374 58.0414C186.788 57.6346 187.108 57.13 187.334 56.5273L189.91 57.2505C189.639 58.1243 189.183 58.8926 188.543 59.5555C187.903 60.2108 187.112 60.7231 186.17 61.0922C185.229 61.4537 184.17 61.6345 182.995 61.6345ZM203.093 57.6572L209.149 43.9176H211.68L204.177 61.2729H202.008L194.641 43.9176H197.127L203.093 57.6572ZM196.268 43.9176V61.2729H193.601V43.9176H196.268ZM209.917 61.2729V43.9176H212.584V61.2729H209.917ZM224.057 56.8437H226.904C226.964 57.6271 227.318 58.2222 227.966 58.629C228.621 59.0357 229.473 59.2391 230.52 59.2391C231.589 59.2391 232.504 59.0207 233.265 58.5838C234.026 58.1393 234.406 57.4237 234.406 56.4369C234.406 55.8569 234.263 55.3522 233.977 54.9229C233.691 54.486 233.288 54.147 232.768 53.906C232.248 53.6649 231.634 53.5444 230.926 53.5444H227.943V51.149H230.926C231.988 51.149 232.772 50.9079 233.277 50.4258C233.789 49.9437 234.045 49.3411 234.045 48.618C234.045 47.8421 233.77 47.2207 233.22 46.7536C232.67 46.2791 231.891 46.0418 230.881 46.0418C229.864 46.0418 229.017 46.2716 228.339 46.731C227.661 47.183 227.303 47.7668 227.265 48.4824H224.463C224.493 47.5483 224.78 46.7235 225.322 46.0079C225.864 45.2848 226.603 44.7198 227.537 44.313C228.471 43.8987 229.54 43.6916 230.746 43.6916C231.966 43.6916 233.024 43.9063 233.921 44.3356C234.825 44.7575 235.521 45.3337 236.011 46.0644C236.508 46.7875 236.757 47.6086 236.757 48.5276C236.757 49.5069 236.482 50.2978 235.932 50.9004C235.382 51.503 234.693 51.9324 233.864 52.1885V52.3693C234.519 52.4145 235.088 52.6254 235.57 53.002C236.06 53.3711 236.44 53.857 236.711 54.4596C236.983 55.0547 237.118 55.7138 237.118 56.4369C237.118 57.4915 236.836 58.4105 236.271 59.1939C235.706 59.9698 234.93 60.5724 233.943 61.0018C232.956 61.4236 231.83 61.6345 230.565 61.6345C229.337 61.6345 228.237 61.4349 227.265 61.0357C226.294 60.6289 225.522 60.0677 224.949 59.3521C224.384 58.629 224.087 57.7928 224.057 56.8437ZM245.335 61.6797C244.235 61.6797 243.237 61.4726 242.34 61.0583C241.444 60.6364 240.732 60.0301 240.205 59.2391C239.678 58.4406 239.414 57.4765 239.414 56.3466C239.414 55.3522 239.61 54.5462 240.002 53.9286C240.393 53.3033 240.917 52.8137 241.572 52.4597C242.227 52.1056 242.951 51.842 243.742 51.6687C244.54 51.488 245.342 51.3448 246.148 51.2394C247.203 51.1038 248.058 51.0021 248.713 50.9343C249.376 50.859 249.858 50.7347 250.159 50.5614C250.468 50.3882 250.623 50.0869 250.623 49.6575V49.5671C250.623 48.4523 250.318 47.586 249.707 46.9683C249.105 46.3506 248.19 46.0418 246.962 46.0418C245.689 46.0418 244.691 46.3205 243.968 46.8779C243.244 47.4354 242.736 48.0304 242.442 48.6632L239.911 47.7593C240.363 46.7047 240.966 45.8836 241.719 45.2961C242.48 44.701 243.308 44.2867 244.205 44.0532C245.109 43.8121 245.998 43.6916 246.871 43.6916C247.429 43.6916 248.069 43.7594 248.792 43.895C249.523 44.023 250.227 44.2904 250.905 44.6972C251.591 45.104 252.159 45.7179 252.611 46.539C253.063 47.36 253.289 48.4598 253.289 49.8383V61.2729H250.623V58.9227H250.487C250.306 59.2994 250.005 59.7024 249.583 60.1317C249.161 60.5611 248.6 60.9264 247.9 61.2278C247.199 61.5291 246.344 61.6797 245.335 61.6797ZM245.741 59.2843C246.796 59.2843 247.685 59.0772 248.408 58.6629C249.139 58.2486 249.689 57.7137 250.058 57.0584C250.434 56.403 250.623 55.7138 250.623 54.9907V52.5501C250.51 52.6857 250.261 52.8099 249.877 52.9229C249.5 53.0284 249.063 53.1226 248.566 53.2054C248.077 53.2807 247.598 53.3485 247.131 53.4088C246.672 53.4615 246.299 53.5067 246.013 53.5444C245.32 53.6348 244.672 53.7817 244.069 53.985C243.474 54.1809 242.992 54.4784 242.623 54.8777C242.261 55.2694 242.081 55.8042 242.081 56.4821C242.081 57.4087 242.423 58.1092 243.109 58.5838C243.802 59.0508 244.679 59.2843 245.741 59.2843ZM257.52 61.2729V43.9176H260.187V51.4654H261.949L268.186 43.9176H271.621L264.616 52.2789L271.712 61.2729H268.277L262.582 53.9512H260.187V61.2729H257.52ZM272.437 61.2729V58.7872H273.07C273.589 58.7872 274.022 58.6855 274.369 58.4821C274.715 58.2712 274.994 57.9058 275.205 57.3861C275.423 56.8588 275.589 56.1281 275.702 55.194C275.823 54.2525 275.909 53.0548 275.962 51.6009L276.278 43.9176H287.849V61.2729H285.182V46.4034H278.809L278.538 52.5953C278.478 54.0189 278.35 55.2731 278.154 56.3579C277.966 57.435 277.676 58.339 277.284 59.0696C276.9 59.8003 276.388 60.3502 275.747 60.7193C275.107 61.0884 274.305 61.2729 273.341 61.2729H272.437ZM300.421 51.5106V53.9963H291.246V51.5106H300.421ZM293.506 43.9176V61.2729H290.839V43.9176H293.506ZM305.754 61.6345C304.187 61.6345 302.813 61.2617 301.63 60.5159C300.455 59.7702 299.536 58.7269 298.873 57.3861C298.218 56.0452 297.89 54.4784 297.89 52.6857C297.89 50.8778 298.218 49.2997 298.873 47.9513C299.536 46.603 300.455 45.5559 301.63 44.8102C302.813 44.0645 304.187 43.6916 305.754 43.6916C307.321 43.6916 308.692 44.0645 309.867 44.8102C311.05 45.5559 311.969 46.603 312.624 47.9513C313.287 49.2997 313.618 50.8778 313.618 52.6857C313.618 54.4784 313.287 56.0452 312.624 57.3861C311.969 58.7269 311.05 59.7702 309.867 60.5159C308.692 61.2617 307.321 61.6345 305.754 61.6345ZM305.754 59.2391C306.944 59.2391 307.924 58.934 308.692 58.3239C309.46 57.7137 310.029 56.9115 310.398 55.9172C310.767 54.9229 310.952 53.8457 310.952 52.6857C310.952 51.5256 310.767 50.4447 310.398 49.4428C310.029 48.441 309.46 47.6312 308.692 47.0135C307.924 46.3958 306.944 46.087 305.754 46.087C304.564 46.087 303.585 46.3958 302.816 47.0135C302.048 47.6312 301.479 48.441 301.11 49.4428C300.741 50.4447 300.557 51.5256 300.557 52.6857C300.557 53.8457 300.741 54.9229 301.11 55.9172C301.479 56.9115 302.048 57.7137 302.816 58.3239C303.585 58.934 304.564 59.2391 305.754 59.2391ZM330.699 43.9176V61.2729H328.032V43.9176H330.699ZM329.659 52.1885V54.6743C329.057 54.9003 328.458 55.0999 327.863 55.2731C327.268 55.4389 326.642 55.5707 325.987 55.6686C325.332 55.759 324.612 55.8042 323.829 55.8042C321.863 55.8042 320.285 55.2731 319.095 54.211C317.912 53.1489 317.321 51.5557 317.321 49.4315V43.8724H319.987V49.4315C319.987 50.3204 320.157 51.0511 320.496 51.6235C320.835 52.196 321.294 52.6216 321.874 52.9003C322.454 53.179 323.106 53.3184 323.829 53.3184C324.959 53.3184 325.98 53.2167 326.891 53.0133C327.81 52.8024 328.733 52.5275 329.659 52.1885ZM340.062 61.6797C338.962 61.6797 337.964 61.4726 337.068 61.0583C336.172 60.6364 335.46 60.0301 334.932 59.2391C334.405 58.4406 334.141 57.4765 334.141 56.3466C334.141 55.3522 334.337 54.5462 334.729 53.9286C335.121 53.3033 335.644 52.8137 336.3 52.4597C336.955 52.1056 337.678 51.842 338.469 51.6687C339.267 51.488 340.07 51.3448 340.876 51.2394C341.93 51.1038 342.785 51.0021 343.441 50.9343C344.103 50.859 344.586 50.7347 344.887 50.5614C345.196 50.3882 345.35 50.0869 345.35 49.6575V49.5671C345.35 48.4523 345.045 47.586 344.435 46.9683C343.832 46.3506 342.917 46.0418 341.689 46.0418C340.416 46.0418 339.418 46.3205 338.695 46.8779C337.972 47.4354 337.463 48.0304 337.17 48.6632L334.639 47.7593C335.091 46.7047 335.693 45.8836 336.446 45.2961C337.207 44.701 338.036 44.2867 338.932 44.0532C339.836 43.8121 340.725 43.6916 341.599 43.6916C342.156 43.6916 342.797 43.7594 343.52 43.895C344.25 44.023 344.955 44.2904 345.633 44.6972C346.318 45.104 346.887 45.7179 347.339 46.539C347.791 47.36 348.017 48.4598 348.017 49.8383V61.2729H345.35V58.9227H345.215C345.034 59.2994 344.732 59.7024 344.311 60.1317C343.889 60.5611 343.328 60.9264 342.627 61.2278C341.927 61.5291 341.072 61.6797 340.062 61.6797ZM340.469 59.2843C341.524 59.2843 342.412 59.0772 343.136 58.6629C343.866 58.2486 344.416 57.7137 344.785 57.0584C345.162 56.403 345.35 55.7138 345.35 54.9907V52.5501C345.237 52.6857 344.989 52.8099 344.604 52.9229C344.228 53.0284 343.791 53.1226 343.294 53.2054C342.804 53.2807 342.326 53.3485 341.859 53.4088C341.399 53.4615 341.026 53.5067 340.74 53.5444C340.047 53.6348 339.399 53.7817 338.797 53.985C338.202 54.1809 337.719 54.4784 337.35 54.8777C336.989 55.2694 336.808 55.8042 336.808 56.4821C336.808 57.4087 337.151 58.1092 337.836 58.5838C338.529 59.0508 339.407 59.2843 340.469 59.2843ZM359.524 61.6345C357.852 61.6345 356.409 61.2654 355.196 60.5272C353.991 59.7815 353.061 58.742 352.406 57.4087C351.758 56.0678 351.434 54.5086 351.434 52.7309C351.434 50.9531 351.758 49.3863 352.406 48.0304C353.061 46.667 353.972 45.6049 355.14 44.8441C356.315 44.0758 357.686 43.6916 359.253 43.6916C360.157 43.6916 361.049 43.8422 361.931 44.1436C362.812 44.4449 363.614 44.9345 364.337 45.6124C365.061 46.2828 365.637 47.1717 366.066 48.279C366.496 49.3863 366.71 50.7497 366.71 52.3693V53.4992H353.332V51.1942H363.998C363.998 50.2149 363.803 49.3411 363.411 48.5728C363.027 47.8045 362.477 47.1981 361.761 46.7536C361.053 46.3092 360.217 46.087 359.253 46.087C358.191 46.087 357.272 46.3506 356.496 46.8779C355.728 47.3977 355.136 48.0756 354.722 48.9118C354.308 49.7479 354.1 50.6443 354.1 51.6009V53.1376C354.1 54.4483 354.326 55.5594 354.778 56.4708C355.238 57.3748 355.874 58.064 356.688 58.5386C357.501 59.0056 358.447 59.2391 359.524 59.2391C360.225 59.2391 360.857 59.1412 361.422 58.9453C361.995 58.742 362.488 58.4406 362.902 58.0414C363.317 57.6346 363.637 57.13 363.863 56.5273L366.439 57.2505C366.168 58.1243 365.712 58.8926 365.072 59.5555C364.432 60.2108 363.641 60.7231 362.699 61.0922C361.757 61.4537 360.699 61.6345 359.524 61.6345ZM368.514 46.4034V43.9176H382.616V46.4034H376.921V61.2729H374.254V46.4034H368.514ZM392.019 61.6345C390.391 61.6345 388.99 61.2504 387.815 60.482C386.64 59.7137 385.736 58.6553 385.104 57.307C384.471 55.9586 384.154 54.4182 384.154 52.6857C384.154 50.923 384.478 49.3675 385.126 48.0191C385.781 46.6633 386.693 45.6049 387.861 44.8441C389.036 44.0758 390.407 43.6916 391.973 43.6916C393.194 43.6916 394.293 43.9176 395.273 44.3695C396.252 44.8215 397.054 45.4543 397.679 46.2678C398.305 47.0813 398.693 48.0304 398.843 49.1151H396.177C395.973 48.3242 395.521 47.6237 394.821 47.0135C394.128 46.3958 393.194 46.087 392.019 46.087C390.979 46.087 390.068 46.3582 389.284 46.9005C388.508 47.4354 387.902 48.1924 387.465 49.1716C387.036 50.1434 386.821 51.2846 386.821 52.5953C386.821 53.9361 387.032 55.1037 387.454 56.098C387.883 57.0923 388.486 57.8644 389.262 58.4143C390.045 58.9642 390.964 59.2391 392.019 59.2391C392.712 59.2391 393.341 59.1186 393.906 58.8775C394.47 58.6365 394.949 58.29 395.34 57.838C395.732 57.3861 396.011 56.8437 396.177 56.211H398.843C398.693 57.2354 398.32 58.1582 397.725 58.9792C397.137 59.7928 396.357 60.4406 395.386 60.9227C394.421 61.3972 393.299 61.6345 392.019 61.6345ZM412.545 61.2729V46.3582H407.935C406.896 46.3582 406.079 46.5992 405.483 47.0813C404.888 47.5634 404.591 48.2263 404.591 49.07C404.591 49.8986 404.858 50.5501 405.393 51.0247C405.935 51.4993 406.677 51.7365 407.619 51.7365H413.223V54.2223H407.619C406.444 54.2223 405.431 54.0152 404.58 53.6009C403.728 53.1866 403.073 52.5953 402.613 51.8269C402.154 51.0511 401.924 50.1321 401.924 49.07C401.924 48.0003 402.165 47.0813 402.647 46.313C403.129 45.5446 403.819 44.9533 404.715 44.539C405.619 44.1247 406.692 43.9176 407.935 43.9176H415.076V61.2729H412.545ZM400.975 61.2729L405.902 52.6405H408.794L403.868 61.2729H400.975ZM427.648 61.2729V43.9176H434.744C436.612 43.9176 438.096 44.3394 439.195 45.1831C440.295 46.0267 440.845 47.1416 440.845 48.5276C440.845 49.5822 440.533 50.3995 439.907 50.9795C439.282 51.552 438.48 51.9399 437.501 52.1433C438.141 52.2337 438.762 52.4597 439.365 52.8212C439.975 53.1828 440.48 53.68 440.879 54.3127C441.278 54.9379 441.478 55.7063 441.478 56.6177C441.478 57.5066 441.252 58.3013 440.8 59.0018C440.348 59.7024 439.7 60.256 438.856 60.6628C438.013 61.0696 437.003 61.2729 435.828 61.2729H427.648ZM430.179 58.8323H435.828C436.747 58.8323 437.467 58.6139 437.986 58.177C438.506 57.7401 438.766 57.145 438.766 56.3918C438.766 55.4954 438.506 54.791 437.986 54.2788C437.467 53.7591 436.747 53.4992 435.828 53.4992H430.179V58.8323ZM430.179 51.1942H434.744C435.459 51.1942 436.073 51.0963 436.585 50.9004C437.098 50.697 437.489 50.4108 437.76 50.0417C438.039 49.665 438.179 49.2206 438.179 48.7084C438.179 47.9777 437.873 47.4052 437.263 46.9909C436.653 46.5691 435.813 46.3582 434.744 46.3582H430.179V51.1942ZM449.985 61.6797C448.886 61.6797 447.887 61.4726 446.991 61.0583C446.095 60.6364 445.383 60.0301 444.856 59.2391C444.328 58.4406 444.065 57.4765 444.065 56.3466C444.065 55.3522 444.26 54.5462 444.652 53.9286C445.044 53.3033 445.567 52.8137 446.223 52.4597C446.878 52.1056 447.601 51.842 448.392 51.6687C449.191 51.488 449.993 51.3448 450.799 51.2394C451.853 51.1038 452.708 51.0021 453.364 50.9343C454.027 50.859 454.509 50.7347 454.81 50.5614C455.119 50.3882 455.273 50.0869 455.273 49.6575V49.5671C455.273 48.4523 454.968 47.586 454.358 46.9683C453.755 46.3506 452.84 46.0418 451.612 46.0418C450.339 46.0418 449.341 46.3205 448.618 46.8779C447.895 47.4354 447.386 48.0304 447.093 48.6632L444.562 47.7593C445.014 46.7047 445.616 45.8836 446.37 45.2961C447.13 44.701 447.959 44.2867 448.855 44.0532C449.759 43.8121 450.648 43.6916 451.522 43.6916C452.079 43.6916 452.72 43.7594 453.443 43.895C454.173 44.023 454.878 44.2904 455.556 44.6972C456.241 45.104 456.81 45.7179 457.262 46.539C457.714 47.36 457.94 48.4598 457.94 49.8383V61.2729H455.273V58.9227H455.138C454.957 59.2994 454.656 59.7024 454.234 60.1317C453.812 60.5611 453.251 60.9264 452.55 61.2278C451.85 61.5291 450.995 61.6797 449.985 61.6797ZM450.392 59.2843C451.447 59.2843 452.335 59.0772 453.059 58.6629C453.789 58.2486 454.339 57.7137 454.708 57.0584C455.085 56.403 455.273 55.7138 455.273 54.9907V52.5501C455.16 52.6857 454.912 52.8099 454.528 52.9229C454.151 53.0284 453.714 53.1226 453.217 53.2054C452.727 53.2807 452.249 53.3485 451.782 53.4088C451.322 53.4615 450.949 53.5067 450.663 53.5444C449.97 53.6348 449.322 53.7817 448.72 53.985C448.125 54.1809 447.643 54.4784 447.274 54.8777C446.912 55.2694 446.731 55.8042 446.731 56.4821C446.731 57.4087 447.074 58.1092 447.759 58.5838C448.452 59.0508 449.33 59.2843 450.392 59.2843ZM462.171 43.9176H464.837V58.7872H471.391V43.9176H474.057V58.7872H480.611V43.9176H483.277V61.2729H462.171V43.9176ZM495.823 61.2729V43.9176H502.919C504.787 43.9176 506.271 44.3394 507.371 45.1831C508.471 46.0267 509.021 47.1416 509.021 48.5276C509.021 49.5822 508.708 50.3995 508.083 50.9795C507.458 51.552 506.655 51.9399 505.676 52.1433C506.316 52.2337 506.938 52.4597 507.54 52.8212C508.151 53.1828 508.655 53.68 509.054 54.3127C509.454 54.9379 509.653 55.7063 509.653 56.6177C509.653 57.5066 509.427 58.3013 508.975 59.0018C508.523 59.7024 507.876 60.256 507.032 60.6628C506.188 61.0696 505.179 61.2729 504.004 61.2729H495.823ZM498.354 58.8323H504.004C504.923 58.8323 505.642 58.6139 506.162 58.177C506.682 57.7401 506.942 57.145 506.942 56.3918C506.942 55.4954 506.682 54.791 506.162 54.2788C505.642 53.7591 504.923 53.4992 504.004 53.4992H498.354V58.8323ZM498.354 51.1942H502.919C503.635 51.1942 504.249 51.0963 504.761 50.9004C505.273 50.697 505.665 50.4108 505.936 50.0417C506.215 49.665 506.354 49.2206 506.354 48.7084C506.354 47.9777 506.049 47.4052 505.439 46.9909C504.829 46.5691 503.989 46.3582 502.919 46.3582H498.354V51.1942ZM520.104 61.6345C518.537 61.6345 517.163 61.2617 515.98 60.5159C514.805 59.7702 513.886 58.7269 513.223 57.3861C512.568 56.0452 512.24 54.4784 512.24 52.6857C512.24 50.8778 512.568 49.2997 513.223 47.9513C513.886 46.603 514.805 45.5559 515.98 44.8102C517.163 44.0645 518.537 43.6916 520.104 43.6916C521.671 43.6916 523.042 44.0645 524.217 44.8102C525.4 45.5559 526.319 46.603 526.974 47.9513C527.637 49.2997 527.968 50.8778 527.968 52.6857C527.968 54.4784 527.637 56.0452 526.974 57.3861C526.319 58.7269 525.4 59.7702 524.217 60.5159C523.042 61.2617 521.671 61.6345 520.104 61.6345ZM520.104 59.2391C521.294 59.2391 522.274 58.934 523.042 58.3239C523.81 57.7137 524.379 56.9115 524.748 55.9172C525.117 54.9229 525.302 53.8457 525.302 52.6857C525.302 51.5256 525.117 50.4447 524.748 49.4428C524.379 48.441 523.81 47.6312 523.042 47.0135C522.274 46.3958 521.294 46.087 520.104 46.087C518.914 46.087 517.935 46.3958 517.166 47.0135C516.398 47.6312 515.829 48.441 515.46 49.4428C515.091 50.4447 514.907 51.5256 514.907 52.6857C514.907 53.8457 515.091 54.9229 515.46 55.9172C515.829 56.9115 516.398 57.7137 517.166 58.3239C517.935 58.934 518.914 59.2391 520.104 59.2391ZM531.402 61.2729V43.9176H545.052V61.2729H542.385V46.4034H534.069V61.2729H531.402ZM549.285 67.7812V43.9176H551.861V46.6745H552.178C552.374 46.3732 552.645 45.9891 552.991 45.522C553.345 45.0475 553.85 44.6257 554.505 44.2565C555.168 43.8799 556.065 43.6916 557.195 43.6916C558.656 43.6916 559.944 44.0569 561.059 44.7876C562.174 45.5183 563.044 46.554 563.669 47.8948C564.294 49.2357 564.607 50.8175 564.607 52.6405C564.607 54.4784 564.294 56.0716 563.669 57.42C563.044 58.7608 562.177 59.8003 561.07 60.5385C559.963 61.2692 558.686 61.6345 557.24 61.6345C556.125 61.6345 555.232 61.45 554.562 61.0809C553.891 60.7042 553.375 60.2786 553.014 59.8041C552.652 59.322 552.374 58.9227 552.178 58.6064H551.952V67.7812H549.285ZM551.907 52.5953C551.907 53.906 552.099 55.0622 552.483 56.0641C552.867 57.0584 553.428 57.838 554.166 58.403C554.905 58.9604 555.809 59.2391 556.878 59.2391C557.993 59.2391 558.923 58.9453 559.669 58.3578C560.422 57.7627 560.987 56.9642 561.364 55.9624C561.748 54.953 561.94 53.8306 561.94 52.5953C561.94 51.375 561.752 50.2752 561.375 49.2959C561.006 48.3091 560.445 47.5295 559.692 46.957C558.946 46.377 558.008 46.087 556.878 46.087C555.793 46.087 554.882 46.3619 554.144 46.9118C553.406 47.4542 552.848 48.215 552.472 49.1942C552.095 50.166 551.907 51.2996 551.907 52.5953ZM575.089 61.6345C573.522 61.6345 572.147 61.2617 570.965 60.5159C569.789 59.7702 568.87 58.7269 568.208 57.3861C567.552 56.0452 567.225 54.4784 567.225 52.6857C567.225 50.8778 567.552 49.2997 568.208 47.9513C568.87 46.603 569.789 45.5559 570.965 44.8102C572.147 44.0645 573.522 43.6916 575.089 43.6916C576.655 43.6916 578.026 44.0645 579.202 44.8102C580.384 45.5559 581.303 46.603 581.959 47.9513C582.621 49.2997 582.953 50.8778 582.953 52.6857C582.953 54.4784 582.621 56.0452 581.959 57.3861C581.303 58.7269 580.384 59.7702 579.202 60.5159C578.026 61.2617 576.655 61.6345 575.089 61.6345ZM575.089 59.2391C576.279 59.2391 577.258 58.934 578.026 58.3239C578.795 57.7137 579.364 56.9115 579.733 55.9172C580.102 54.9229 580.286 53.8457 580.286 52.6857C580.286 51.5256 580.102 50.4447 579.733 49.4428C579.364 48.441 578.795 47.6312 578.026 47.0135C577.258 46.3958 576.279 46.087 575.089 46.087C573.899 46.087 572.919 46.3958 572.151 47.0135C571.383 47.6312 570.814 48.441 570.445 49.4428C570.076 50.4447 569.891 51.5256 569.891 52.6857C569.891 53.8457 570.076 54.9229 570.445 55.9172C570.814 56.9115 571.383 57.7137 572.151 58.3239C572.919 58.934 573.899 59.2391 575.089 59.2391ZM593.438 61.6345C591.811 61.6345 590.409 61.2504 589.234 60.482C588.059 59.7137 587.155 58.6553 586.523 57.307C585.89 55.9586 585.573 54.4182 585.573 52.6857C585.573 50.923 585.897 49.3675 586.545 48.0191C587.201 46.6633 588.112 45.6049 589.28 44.8441C590.455 44.0758 591.826 43.6916 593.392 43.6916C594.613 43.6916 595.712 43.9176 596.692 44.3695C597.671 44.8215 598.473 45.4543 599.098 46.2678C599.724 47.0813 600.112 48.0304 600.262 49.1151H597.596C597.392 48.3242 596.94 47.6237 596.24 47.0135C595.547 46.3958 594.613 46.087 593.438 46.087C592.398 46.087 591.487 46.3582 590.703 46.9005C589.927 47.4354 589.321 48.1924 588.884 49.1716C588.455 50.1434 588.24 51.2846 588.24 52.5953C588.24 53.9361 588.451 55.1037 588.873 56.098C589.302 57.0923 589.905 57.8644 590.681 58.4143C591.464 58.9642 592.383 59.2391 593.438 59.2391C594.131 59.2391 594.76 59.1186 595.325 58.8775C595.889 58.6365 596.368 58.29 596.76 57.838C597.151 57.3861 597.43 56.8437 597.596 56.211H600.262C600.112 57.2354 599.739 58.1582 599.144 58.9792C598.556 59.7928 597.776 60.4406 596.805 60.9227C595.841 61.3972 594.718 61.6345 593.438 61.6345ZM607.004 54.7647V54.6291C607.019 53.1903 607.17 52.0454 607.456 51.1942C607.742 50.343 608.149 49.6537 608.676 49.1264C609.204 48.5992 609.836 48.1133 610.575 47.6689C611.019 47.3977 611.418 47.0775 611.772 46.7084C612.126 46.3318 612.405 45.8987 612.609 45.4091C612.819 44.9194 612.925 44.3771 612.925 43.782C612.925 43.0438 612.752 42.4035 612.405 41.8611C612.059 41.3188 611.595 40.9007 611.015 40.6069C610.435 40.3132 609.791 40.1663 609.083 40.1663C608.466 40.1663 607.87 40.2943 607.298 40.5505C606.725 40.8066 606.247 41.2096 605.863 41.7595C605.479 42.3093 605.257 43.0287 605.196 43.9176H602.349C602.409 42.637 602.741 41.541 603.343 40.6295C603.953 39.7181 604.756 39.0213 605.75 38.5392C606.752 38.0571 607.863 37.8161 609.083 37.8161C610.409 37.8161 611.561 38.0797 612.541 38.607C613.528 39.1343 614.288 39.8574 614.823 40.7764C615.365 41.6954 615.637 42.7425 615.637 43.9176C615.637 44.7462 615.509 45.4957 615.252 46.1661C615.004 46.8365 614.642 47.4354 614.168 47.9626C613.701 48.4899 613.136 48.957 612.473 49.3637C611.81 49.778 611.279 50.2149 610.88 50.6744C610.481 51.1264 610.191 51.665 610.01 52.2902C609.829 52.9154 609.731 53.695 609.716 54.6291V54.7647H607.004ZM608.45 61.4537C607.893 61.4537 607.415 61.2541 607.015 60.8549C606.616 60.4556 606.417 59.9773 606.417 59.4199C606.417 58.8625 606.616 58.3842 607.015 57.9849C607.415 57.5857 607.893 57.3861 608.45 57.3861C609.008 57.3861 609.486 57.5857 609.885 57.9849C610.285 58.3842 610.484 58.8625 610.484 59.4199C610.484 59.789 610.39 60.128 610.202 60.4368C610.021 60.7457 609.776 60.9942 609.467 61.1826C609.166 61.3633 608.827 61.4537 608.45 61.4537Z" fill="#F9FAFB"/>
<defs>
<clipPath id="clip0_4248_45641">
<rect width="45.4545" height="45.4545" fill="white" transform="translate(18.1816 36.3638)"/>
</clipPath>
</defs>
</svg>
