<svg width="130" height="130" viewBox="0 0 130 130" fill="none" xmlns="http://www.w3.org/2000/svg">
<rect x="5" y="5" width="120" height="120" rx="60" fill="#1883FF"/>
<rect x="5" y="5" width="120" height="120" rx="60" stroke="#1883FF" stroke-opacity="0.2" stroke-width="9.23077"/>
<path d="M90.9895 64.1227C90.9895 77.6643 80.0119 88.642 66.4703 88.642C63.3642 88.642 60.393 88.0644 57.6582 87.0108L57.6581 87.0108C57.1582 86.8182 56.9082 86.7219 56.7094 86.6761C56.5139 86.631 56.3723 86.6121 56.1718 86.6045C55.9679 86.5967 55.7442 86.6198 55.2969 86.666L40.5247 88.193C39.1163 88.3386 38.4121 88.4114 37.9967 88.158C37.6349 87.9373 37.3885 87.5687 37.3229 87.15C37.2476 86.6692 37.5841 86.0464 38.2571 84.8007L42.9753 76.0674C43.3639 75.3482 43.5582 74.9886 43.6462 74.6428C43.7331 74.3013 43.7541 74.055 43.7263 73.7038C43.6982 73.3481 43.5421 72.8851 43.23 71.9591C42.4006 69.4985 41.951 66.8631 41.951 64.1227C41.951 50.5811 52.9287 39.6035 66.4703 39.6035C80.0119 39.6035 90.9895 50.5811 90.9895 64.1227Z" fill="white"/>
<path fill-rule="evenodd" clip-rule="evenodd" d="M63.9793 66.177C63.681 66.8486 63.5319 67.9644 63.5319 69.5242H68.1341C68.1341 68.571 68.3365 67.8344 68.7413 67.3144C68.8479 67.1844 68.9544 67.0653 69.0609 66.957C69.1888 66.8486 69.3486 66.7295 69.5403 66.5995L70.0197 66.2745C70.1689 66.1662 70.3926 66.0254 70.6909 65.8521C70.9892 65.6571 71.2342 65.4946 71.426 65.3646C72.0225 64.9746 72.5019 64.6063 72.8642 64.2597C73.2264 63.9131 73.5779 63.3715 73.9188 62.6349C74.2597 61.8983 74.4302 61.0533 74.4302 60.1001C74.4302 58.1286 73.6951 56.5363 72.225 55.323C70.7761 54.0881 68.8585 53.4707 66.4722 53.4707C63.8515 53.4707 61.7741 54.1748 60.24 55.583C58.706 56.9912 57.9176 58.8652 57.875 61.205H63.0205C63.0205 60.1651 63.3082 59.3527 63.8834 58.7677C64.48 58.1611 65.2684 57.8578 66.2485 57.8578C67.0368 57.8578 67.6867 58.0853 68.198 58.5402C68.7094 58.9735 68.9651 59.5585 68.9651 60.2951C68.9651 60.9017 68.8159 61.4 68.5176 61.7899C68.2406 62.1799 67.7719 62.6024 67.1114 63.0573C66.4509 63.5123 65.9928 63.8589 65.7371 64.0972C64.8849 64.8122 64.2989 65.5054 63.9793 66.177ZM65.9046 76.5533C67.567 76.5533 68.9146 75.2056 68.9146 73.5432C68.9146 71.8808 67.567 70.5332 65.9046 70.5332C64.2422 70.5332 62.8945 71.8808 62.8945 73.5432C62.8945 75.2056 64.2422 76.5533 65.9046 76.5533Z" fill="#1883FF"/>
</svg>
